<svg xmlns="http://www.w3.org/2000/svg" viewBox="0 0 800 560" role="img" aria-label="S2-DID hardware seal">
  <defs>
    <filter id="glow-cyan" x="-20%" y="-20%" width="140%" height="140%">
      <feDropShadow dx="0" dy="0" stdDeviation="4" flood-color="#06b6d4" flood-opacity="0.85"/>
    </filter>
    <filter id="glow-green" x="-40%" y="-40%" width="180%" height="180%">
      <feDropShadow dx="0" dy="0" stdDeviation="3" flood-color="#22c55e" flood-opacity="0.8"/>
    </filter>
    <linearGradient id="chip" x1="0" y1="0" x2="0" y2="1">
      <stop offset="0" stop-color="#122033"/>
      <stop offset="1" stop-color="#070b10"/>
    </linearGradient>
  </defs>
  <rect width="800" height="560" fill="#05080A"/>
  <g stroke="#06b6d4" stroke-opacity="0.14">
    <path d="M0 48 H800 M0 128 H800 M0 208 H800 M0 288 H800 M0 368 H800 M0 448 H800"/>
    <path d="M80 0 V560 M200 0 V560 M600 0 V560 M720 0 V560"/>
  </g>
  <g filter="url(#glow-cyan)" stroke="#06b6d4" fill="none">
    <path d="M250 470 H180 V520" stroke-width="8" stroke-linecap="square"/>
    <path d="M400 478 V530" stroke-width="10" stroke-linecap="square"/>
    <path d="M550 470 H620 V520" stroke-width="8" stroke-linecap="square"/>
  </g>
  <g filter="url(#glow-green)">
    <path d="M400 78 L560 138 V300 C560 390 400 450 400 450 C400 450 240 390 240 300 V138 Z" fill="url(#chip)" stroke="#22c55e" stroke-width="3"/>
    <path d="M400 108 L520 154 V292 C520 360 400 408 400 408 C400 408 280 360 280 292 V154 Z" fill="none" stroke="#06b6d4" stroke-width="1.4"/>
  </g>
  <g fill="#e2e8f0" font-family="ui-monospace, monospace" text-anchor="middle">
    <text x="400" y="196" font-size="18" fill="#67e8f9" letter-spacing="3">CD-U6A</text>
    <text x="400" y="232" font-size="20" fill="#f8fafc">CN-073-FORT-001-5</text>
    <text x="400" y="286" font-size="15" fill="#86efac">RAS2SENTINELCPAA0001EU</text>
    <text x="400" y="324" font-size="12" fill="#94a3b8">22-CHAR S2-DID</text>
  </g>
  <circle cx="400" cy="360" r="10" fill="#ef4444">
    <animate attributeName="opacity" values="1;0.35;1" dur="1.8s" repeatCount="indefinite"/>
  </circle>
</svg>
